<?xml version="1.0" encoding="UTF-8" standalone="no"?> <svg xmlns="http://www.w3.org/2000/svg" viewBox="0 0 32 32"><defs><style>.cls-1{fill:#e6e6e6;}.cls-2{fill:#3f464d;}.cls-3{fill:#ffe082;}</style></defs><title>Card, mobile, sim</title><g id="_01" data-name="01"><path class="cls-1" d="M23.5,29H8.5A1.5,1.5,0,0,1,7,27.5V6.5A1.5,1.5,0,0,1,8.5,5H21.4a1.5,1.5,0,0,1,1.065.443l2.1,2.118A1.5,1.5,0,0,1,25,8.618V27.5A1.5,1.5,0,0,1,23.5,29Z"/><path class="cls-2" d="M21.71,12.708l-1.4-1.413A1,1,0,0,0,19.6,11H11a1,1,0,0,0-1,1V26a1,1,0,0,0,1,1H21a1,1,0,0,0,1-1V13.412A1,1,0,0,0,21.71,12.708Z"/><rect class="cls-3" x="13.2" y="19" width="5.6" height="6" rx="1.5" ry="1.5"/></g></svg>